# xmcd
#
# Track frame offsets: 
#        150
#        14831
#        27581
#        50571
#        59476
#        71859
#        86216
#        98119
#        107824
#        118929
#        130874
#        141967
#        150434
#        166082
#        179692
#        192054
#        209497
#
# Disc length: 3086 seconds
#
# Revision: 2
# Processed by: cddbd v1.5.1PL0 Copyright (c) Steve Scherf et al.
# Submitted via: ExactAudioCopy v0.95a5
#
DISCID=040c0c11
DTITLE=Forty Watt Bulb - Shovle's Length Short
DYEAR=2004
DGENRE=Country
TTITLE0=Laramie
TTITLE1=Uncle
TTITLE2=Shovel's Length Short
TTITLE3=Goinn' Out West
TTITLE4=Good Gravy
TTITLE5=The Butchers' Union
TTITLE6=Cold Ground
TTITLE7=Piss and Vinegar
TTITLE8=Baby blue
TTITLE9=Three Monkey Rush
TTITLE10=Tattoo
TTITLE11=Jesus Loves My Shotgun
TTITLE12=Tie Me Up or Tie Me Down
TTITLE13=Shoes
TTITLE14=Bastard Son of Lee Marvin
TTITLE15=Lenore
TTITLE16=When I Set This Hammer Dwon
EXTD=
EXTT0=
EXTT1=
EXTT2=
EXTT3=
EXTT4=
EXTT5=
EXTT6=
EXTT7=
EXTT8=
EXTT9=
EXTT10=
EXTT11=
EXTT12=
EXTT13=
EXTT14=
EXTT15=
EXTT16=
PLAYORDER=
